<?xml version="1.0" encoding="UTF-8"?>
<svg id="Layer_2" data-name="Layer 2" xmlns="http://www.w3.org/2000/svg" viewBox="0 0 864.11 85.2">
  <defs>
    <style>
      .cls-1 {
        fill: #fff;
        stroke-width: 0px;
      }
    </style>
  </defs>
  <g id="Layer_1-2" data-name="Layer 1">
    <g>
      <path class="cls-1" d="M0,0h23.16c14.88,0,27.24,12.36,27.24,27.24,0,10.2-5.64,19.2-14.04,23.88l18.24,32.88h-16.8l-16.32-29.4h-4.68v29.4H0V0ZM23.16,50.4c12.72,0,23.04-10.32,23.04-23.04S36,4.2,23.16,4.2h-6.36v8.4h6.36c8.04,0,14.64,6.6,14.64,14.76s-6.6,14.64-14.64,14.64h-6.36v8.4h6.36ZM23.16,37.8c5.76,0,10.44-4.68,10.44-10.44s-4.68-10.56-10.44-10.56h-6.36v21h6.36Z"/>
      <path class="cls-1" d="M70.2,62.64v-17.4c0-12.36,10.08-22.44,22.56-22.44s22.44,10.08,22.44,22.44v17.4h-30c0,4.2,3.36,7.56,7.56,7.56,7.08,0,9.96-.84,14.4-4.2l9,12.12c-8.16,5.64-12.84,7.08-23.4,7.08-12.48,0-22.56-10.08-22.56-22.56ZM111.48,58.92v-13.68c0-8.4-6.72-18.72-18.72-18.72-.96,0-1.8.12-2.76.24-5.28,4.44-8.52,11.16-8.52,18.48,0-4.92,3.6-11.16,11.28-11.16,4.92,0,11.16,3.72,11.16,11.16v7.56h-18.72v6.12h26.28ZM100.2,49.08v-3.84c0-4.08-3.36-7.44-7.44-7.44s-7.56,3.36-7.56,7.44v3.84h15Z"/>
      <path class="cls-1" d="M129.6,60v-12c0-13.92,11.28-25.2,25.2-25.2s25.2,11.28,25.2,25.2h-16.8c0-4.68-3.72-8.4-8.4-8.4s-8.4,3.72-8.4,8.4v12c0,4.68,3.72,8.4,8.4,8.4s8.4-3.72,8.4-8.4h16.8c0,13.92-11.28,25.2-25.2,25.2s-25.2-11.28-25.2-25.2ZM169.68,74.88c2.88-3,4.92-6.72,5.76-10.68h-8.76c-1.68,4.92-6.36,8.4-11.88,8.4-1.8,0-3.6-.36-5.16-1.08-.36-.24-.48-.12-.36.24,1.92,3.72,4.68,6.72,8.16,9.12,4.56-.6,8.88-2.64,12.24-6ZM175.44,43.8c-.84-3.96-2.88-7.68-5.76-10.68-3.36-3.36-7.68-5.4-12.24-6-3.36,2.4-6.12,5.4-8.04,9-.12.36,0,.48.36.36,1.56-.72,3.24-1.08,5.04-1.08,5.52,0,10.2,3.48,11.88,8.4h8.76Z"/>
      <path class="cls-1" d="M194.4,60V24h16.8v36c0,4.68,3.72,8.4,8.4,8.4s8.4-3.72,8.4-8.4V24h16.8v36c0,13.92-11.28,25.2-25.2,25.2s-25.2-11.28-25.2-25.2ZM234.48,74.88c3.96-3.96,6.12-9.24,6.12-14.88v-31.8h-8.4v31.8c0,6.96-5.64,12.6-12.6,12.6-2.04,0-4.08-.48-5.76-1.44,1.92,3.96,4.8,7.2,8.4,9.72,4.56-.6,8.88-2.64,12.24-6Z"/>
      <path class="cls-1" d="M309.6,49.2v4.2h-16.8v-4.2c0-4.68-3.72-8.4-8.4-8.4s-8.4,3.72-8.4,8.4v34.8h-16.8V24h16.8v1.44c2.64-.96,5.4-1.44,8.4-1.44,13.92,0,25.2,11.28,25.2,25.2ZM305.4,49.2c0-5.64-2.16-10.92-6.12-14.88-3.36-3.36-7.68-5.4-12.24-6-3.6,2.52-6.48,5.76-8.4,9.72,1.68-.96,3.72-1.44,5.76-1.44,6.96,0,12.6,5.64,12.6,12.6h8.4Z"/>
      <path class="cls-1" d="M322.8,65.28h15c0,2.04,1.68,3.72,3.72,3.72h7.56c2.04,0,3.72-1.68,3.72-3.72s-1.68-3.72-3.72-3.84l-6.36-.48c-11.52-.84-18.72-7.32-18.72-18.24s8.88-18.72,18.72-18.72h2.76c10.56,0,18.72,8.16,18.72,18.72h-15c0-2.04-.48-3.72-3.72-3.72h-2.76c-2.04,0-3.72,1.68-3.72,3.72s1.68,3.6,3.72,3.72l6.36.48c10.92.84,18.72,7.2,18.72,18.36,0,10.56-8.88,18.72-18.72,18.72h-7.56c-10.56,0-18.72-8.88-18.72-18.72ZM356.52,65.28c0,4.08-3.36,7.44-7.44,7.44h-7.56c-2.76,0-5.16-1.44-6.48-3.72h-8.04c1.8,6.24,7.2,11.28,14.52,11.28,11.88,0,15-6.72,15-15ZM342.72,35.28h2.76c2.76,0,5.16,1.44,6.48,3.72h8.04c-1.8-6.24-7.2-11.28-14.52-11.28s-10.2,6.72-10.2,15c0-4.08,3.36-7.44,7.44-7.44Z"/>
      <path class="cls-1" d="M383.4,0h16.8v16.8h-16.8V0ZM383.4,24h16.8v60h-16.8V24ZM396,12.6V4.2h-8.4v8.4h8.4Z"/>
      <path class="cls-1" d="M474.59,24l-22.44,60h-15l-22.56-60h15l15,39.96,15-39.96h15ZM469.19,27.72h-6.96l-15.6,41.64,3.48,9.24,19.08-50.88Z"/>
      <path class="cls-1" d="M489,62.64v-17.4c0-12.36,10.08-22.44,22.56-22.44s22.44,10.08,22.44,22.44v17.4h-30c0,4.2,3.36,7.56,7.56,7.56,7.08,0,9.96-.84,14.4-4.2l9,12.12c-8.16,5.64-12.84,7.08-23.4,7.08-12.48,0-22.56-10.08-22.56-22.56ZM530.27,58.92v-13.68c0-8.4-6.72-18.72-18.72-18.72-.96,0-1.8.12-2.76.24-5.28,4.44-8.52,11.16-8.52,18.48,0-4.92,3.6-11.16,11.28-11.16,4.92,0,11.16,3.72,11.16,11.16v7.56h-18.72v6.12h26.28ZM518.99,49.08v-3.84c0-4.08-3.36-7.44-7.44-7.44s-7.56,3.36-7.56,7.44v3.84h15Z"/>
      <path class="cls-1" d="M647.87,16.8h-26.88V0h51.72l-26.88,67.2h26.88v16.8h-51.72l26.88-67.2ZM635.99,79.8l30.24-75.6h-8.52l-30.24,75.6h8.52Z"/>
      <path class="cls-1" d="M689.51,62.64v-17.4c0-12.36,10.08-22.44,22.56-22.44s22.44,10.08,22.44,22.44v17.4h-30c0,4.2,3.36,7.56,7.56,7.56,7.08,0,9.96-.84,14.4-4.2l9,12.12c-8.16,5.64-12.84,7.08-23.4,7.08-12.48,0-22.56-10.08-22.56-22.56ZM730.79,58.92v-13.68c0-8.4-6.72-18.72-18.72-18.72-.96,0-1.8.12-2.76.24-5.28,4.44-8.52,11.16-8.52,18.48,0-4.92,3.6-11.16,11.28-11.16,4.92,0,11.16,3.72,11.16,11.16v7.56h-18.72v6.12h26.28ZM719.51,49.08v-3.84c0-4.08-3.36-7.44-7.44-7.44s-7.56,3.36-7.56,7.44v3.84h15Z"/>
      <path class="cls-1" d="M799.31,49.2v4.2h-16.8v-4.2c0-4.68-3.72-8.4-8.4-8.4s-8.4,3.72-8.4,8.4v34.8h-16.8V24h16.8v1.44c2.64-.96,5.4-1.44,8.4-1.44,13.92,0,25.2,11.28,25.2,25.2ZM795.11,49.2c0-5.64-2.16-10.92-6.12-14.88-3.36-3.36-7.68-5.4-12.24-6-3.6,2.52-6.48,5.76-8.4,9.72,1.68-.96,3.72-1.44,5.76-1.44,6.96,0,12.6,5.64,12.6,12.6h8.4Z"/>
      <path class="cls-1" d="M813.71,60v-12c0-13.92,11.28-25.2,25.2-25.2s25.2,11.28,25.2,25.2v12c0,13.92-11.28,25.2-25.2,25.2s-25.2-11.28-25.2-25.2ZM859.91,60v-12c0-11.88-9.84-21-21-21-.96,0-2.04.12-3,.24-5.28,4.44-9,10.92-9.6,16.44,0,.24,0,.36.12.36s.12-.12.24-.36c1.08-3.96,6.12-8.28,12.24-8.28,6.96,0,12.6,5.64,12.6,12.6v12.36c0,7.92-3.6,15-9,19.92-.24.24-.24.48.12.36,9.6-1.68,17.28-10.08,17.28-20.64ZM847.31,60v-12c0-4.68-3.72-8.4-8.4-8.4s-8.4,3.72-8.4,8.4v12c0,4.68,3.72,8.4,8.4,8.4s8.4-3.72,8.4-8.4Z"/>
    </g>
  </g>
</svg>